Coordinates
version=1
nRows=23
nColumns=23
inDegrees=yes

Units are S.I. units (second, meters, Newtons, ...)
If the header above contains a line with 'inDegrees', this indicates whether rotational values are in degrees (yes) or radians (no).

endheader
time	pelvis_tilt	pelvis_list	pelvis_rotation	pelvis_tx	pelvis_ty	pelvis_tz	hip_flexion_r	hip_adduction_r	hip_rotation_r	knee_angle_r	knee_angle_r_beta	ankle_angle_r	subtalar_angle_r	mtp_angle_r	hip_flexion_l	hip_adduction_l	hip_rotation_l	knee_angle_l	knee_angle_l_beta	ankle_angle_l	subtalar_angle_l	mtp_angle_l
      0.00000000	    -16.26966440	      6.65808302	      3.90120860	      2.15193552	      0.88123501	      0.93260599	     33.11160012	     -8.63668153	      4.04970938	    101.52630379	      1.77196828	     -9.21154341	    -20.40162305	      0.00000000	     28.64051049	     11.08682781	     -3.82526784	     45.05032459	      0.78627649	     25.17160685	    -11.77214531	      0.00000000
      0.00666667	    -16.56461212	      6.08884369	      3.75288109	      2.15199127	      0.88552043	      0.93295432	     35.51070964	     -7.90537008	      4.01422155	    100.42087163	      1.75267485	     -8.34668512	    -20.01081352	      0.00000000	     26.52496937	     10.41289460	     -3.44581307	     43.52068071	      0.75957917	     24.46863338	    -11.16094713	      0.00000000
      0.01333333	    -16.14356718	      5.39761886	      3.51696063	      2.15279314	      0.89082309	      0.93345908	     36.84280454	     -6.99546959	      3.78034736	     98.95564680	      1.72710185	     -7.25736334	    -19.30667492	      0.00000000	     23.48155673	      9.51584384	     -3.14105716	     41.67558186	      0.72737612	     23.75706306	    -10.32430808	      0.00000000
      0.02000000	    -16.23064960	      4.69292851	      3.27876688	      2.15335799	      0.89524205	      0.93393425	     38.64680724	     -6.06634285	      3.56693277	     97.39332884	      1.69983426	     -6.27982253	    -18.81117524	      0.00000000	     21.06356824	      8.58237552	     -3.01876611	     39.82888920	      0.69514525	     22.67084259	     -9.54980402	      0.00000000
      0.02666667	    -16.76657368	      4.06393443	      3.14869032	      2.15377364	      0.89901049	      0.93414492	     40.81463719	     -5.24446726	      3.37814182	     95.65775080	      1.66954271	     -5.38965283	    -18.53538883	      0.00000000	     19.19145995	      7.86126982	     -2.68237162	     38.00735234	      0.66335344	     21.78291690	     -8.69987268	      0.00000000
      0.03333333	    -15.41596776	      2.81618844	      2.95463172	      2.15605536	      0.90588689	      0.93449034	     40.37611211	     -3.94299313	      2.38680208	     93.14069239	      1.62561175	     -4.40481270	    -18.08017264	      0.00000000	     15.02855225	      6.18028248	     -2.73910384	     35.64357455	      0.62209773	     19.90846093	     -7.72693937	      0.00000000
      0.04000000	    -16.07974392	      2.20359272	      2.66814183	      2.15678107	      0.90951763	      0.93485512	     42.41546519	     -3.13840466	      2.13368460	     90.94865183	      1.58735342	     -3.46534019	    -17.74880517	      0.00000000	     13.34089450	      5.30585650	     -3.05471865	     33.65752822	      0.58743469	     18.02257641	     -6.80121442	      0.00000000
      0.04666667	    -15.42165736	      1.18114445	      2.36040516	      2.15878482	      0.91539824	      0.93517827	     42.56845077	     -1.96540534	      1.42872662	     88.07811776	      1.53725315	     -2.64926088	    -17.64736724	      0.00000000	     10.01986127	      3.92535632	     -3.41532372	     31.19747827	      0.54449871	     15.66291886	     -6.06455569	      0.00000000
      0.05333333	    -15.62558561	      0.41834053	      2.01262411	      2.16018435	      0.91986969	      0.93551161	     43.68467316	     -1.04142562	      0.93458287	     85.18441597	      1.48674853	     -1.82677309	    -17.59938623	      0.00000000	      7.82501556	      2.85799089	     -4.00363019	     29.00126273	      0.50616752	     13.07957802	     -5.21735388	      0.00000000
      0.06000000	    -16.01187359	     -0.20581292	      1.60027635	      2.16148930	      0.92399559	      0.93592558	     44.89390567	     -0.22073025	      0.52362064	     82.09805732	      1.43288141	     -1.02265911	    -17.64761370	      0.00000000	      5.89128765	      1.95494363	     -4.74260477	     26.84396944	      0.46851565	     10.23778730	     -4.40253043	      0.00000000
      0.06666667	    -16.51412765	     -0.72873514	      1.14269046	      2.16271787	      0.92784291	      0.93637626	     46.10979538	      0.51781428	      0.14533251	     78.80447574	      1.37539757	     -0.20705067	    -17.74368567	      0.00000000	      4.15868608	      1.18463005	     -5.56673096	     24.75799197	      0.43210848	      7.17944943	     -3.60921955	      0.00000000
      0.07333333	    -17.22735125	     -1.02243111	      0.61409049	      2.16379907	      0.93116923	      0.93703135	     47.46239036	      1.11937858	     -0.07823678	     75.37140822	      1.31547924	      0.58853085	    -17.91296080	      0.00000000	      2.74278040	      0.65957256	     -6.54651844	     22.79059943	      0.39777100	      4.02718125	     -2.71667728	      0.00000000
      0.08000000	    -17.96799035	     -1.24179335	      0.09174030	      2.16485362	      0.93426458	      0.93772744	     48.70702580	      1.62714140	     -0.35398978	     71.72852749	      1.25189897	      1.40857815	    -18.03736307	      0.00000000	      1.43888864	      0.22363187	     -7.51685228	     20.92844412	      0.36527026	      0.81396157	     -1.85120910	      0.00000000
      0.08666667	    -18.65334098	     -1.38359142	     -0.40634555	      2.16579565	      0.93722051	      0.93844359	     49.75196096	      2.07407741	     -0.63941718	     67.87516015	      1.18464502	      2.20868509	    -18.02442195	      0.00000000	      0.20000591	     -0.09424911	     -8.31653099	     19.25299666	      0.33602818	     -2.39136945	     -1.00581274	      0.00000000
      0.09333333	    -19.32230473	     -1.43896772	     -0.90321028	      2.16676911	      0.93987235	      0.93932115	     50.64645582	      2.44164610	     -0.96195496	     63.85635056	      1.11450357	      3.05924011	    -17.85041581	      0.00000000	     -0.98559945	     -0.32576824	     -9.07022340	     17.69789066	      0.30888646	     -5.36175002	     -0.18115895	      0.00000000
      0.10000000	    -19.85737901	     -1.50906454	     -1.31213987	      2.16778519	      0.94239018	      0.94019960	     51.23344036	      2.74500925	     -1.45319762	     59.63366170	      1.04080374	      3.91424718	    -17.38366429	      0.00000000	     -2.19566381	     -0.57461967	     -9.62339481	     16.35606049	      0.28546711	     -8.12746011	      0.55983354	      0.00000000
      0.10666667	    -20.93664781	     -1.21177232	     -1.62457900	      2.16821932	      0.94365250	      0.94123681	     52.41033387	      2.77132812	     -1.73811203	     55.45364528	      0.96784869	      4.81005470	    -16.69643482	      0.00000000	     -2.49931481	     -0.49965366	     -9.95903516	     15.62485322	      0.27270513	    -10.23226309	      1.46038063	      0.00000000
      0.11333333	    -20.41799158	     -1.85695315	     -1.73891506	      2.17010191	      0.94704450	      0.94186044	     51.37548424	      3.17611432	     -3.20678704	     50.69664343	      0.88482335	      5.77839608	    -15.20671565	      0.00000000	     -4.77058413	     -1.30542215	     -9.88799993	     14.47925258	      0.25271063	    -12.48478670	      1.67433718	      0.00000000
      0.12000000	    -20.51584460	     -2.07425553	     -1.84868542	      2.17132169	      0.94888896	      0.94278746	     51.06567630	      3.35957268	     -4.38091444	     46.12010136	      0.80494762	      6.88242383	    -13.28792371	      0.00000000	     -6.02105167	     -1.74634257	     -9.73272851	     14.06988518	      0.24556582	    -13.98006847	      1.97848976	      0.00000000
      0.12666667	    -20.44388333	     -2.37389910	     -1.87500478	      2.17260389	      0.95045090	      0.94374319	     50.45725361	      3.57456315	     -5.80719861	     41.52331020	      0.72471848	      8.09596676	    -10.80535709	      0.00000000	     -7.28026533	     -2.29487281	     -9.38898264	     14.06835749	      0.24553916	    -14.95567897	      2.11962026	      0.00000000
      0.13333333	    -20.24155654	     -2.75377467	     -1.80179276	      2.17395038	      0.95165041	      0.94468921	     49.61936796	      3.83065981	     -7.46939806	     36.99013244	      0.64559960	      9.44920099	     -7.79672336	      0.00000000	     -8.48006543	     -2.94578372	     -8.81112648	     14.52673509	      0.25353936	    -15.47458357	      1.95179739	      0.00000000
      0.14000000	    -19.99409437	     -3.14405003	     -1.68105822	      2.17525326	      0.95230779	      0.94568647	     48.69320044	      4.15490633	     -9.19874956	     32.62962766	      0.56949444	     10.86320214	     -4.47458621	      0.00000000	     -9.52274576	     -3.62920998	     -8.11353748	     15.45542757	      0.26974810	    -15.54508549	      1.63611799	      0.00000000
      0.14666667	    -19.69731639	     -3.51384447	     -1.54289220	      2.17641086	      0.95245597	      0.94672960	     47.71911995	      4.56517549	    -10.82227926	     28.52129545	      0.49779051	     12.24665507	     -1.12350367	      0.00000000	    -10.39215439	     -4.29857061	     -7.34737541	     16.87048726	      0.29444555	    -15.29819444	      1.16202921	      0.00000000
